<?xml version="1.0" encoding="utf-8"?>
<!-- Generator: Adobe Illustrator 18.1.1, SVG Export Plug-In . SVG Version: 6.00 Build 0)  -->
<svg version="1.1" id="Ebene_1" xmlns:sketch="http://www.bohemiancoding.com/sketch/ns"
	 xmlns="http://www.w3.org/2000/svg" xmlns:xlink="http://www.w3.org/1999/xlink" x="0px" y="0px" viewBox="-188 320.7 220.4 57.6"
	 enable-background="new -188 320.7 220.4 57.6" xml:space="preserve">
<title>logo</title>
<desc>Created with Sketch.</desc>
<g>
	<path d="M-181.1,355.8h-1.7l-4.2-12.6h2.5l2.6,7.9l2.8-7.9h1.7l2.8,7.9l2.6-7.9h2.5l-4.2,12.6h-1.7l-2.8-8L-181.1,355.8z"/>
	<path d="M-156,353.7v2.2h-7.7v-12.6h7.6v2.2h-5.1v2.6h3.9v2.2h-3.9v3.5H-156z"/>
	<path d="M-138.3,353l-1.2,2.8h-2.5l5.4-12.6h1.7l5.4,12.6h-2.5l-1.2-2.8H-138.3z M-134.2,350.9l-1.6-3.7l-1.6,3.7H-134.2z"/>
	<path d="M-121.4,343.2v12.6h-2.4v-12.6H-121.4z"/>
	<path d="M-111.9,347.6v8.2h-2.4v-12.6h1.7l7,8.2v-8.2h2.4v12.6h-1.7L-111.9,347.6z"/>
	<path d="M-92.5,343.2l-2.2,5.3h-1.7l1.3-5.3H-92.5z"/>
	<path d="M-83.2,355.8v-10.4h-3.3v-2.2h9.1v2.2h-3.3v10.4H-83.2z"/>
	<path d="M-59.9,350.7v5.1h-2.4v-12.6h4.7c2.9,0,4.3,1.6,4.3,3.7c0,2.1-1.3,3.7-4.3,3.7H-59.9z M-59.9,345.4v3.2h2.2
		c1.4,0,1.9-0.8,1.9-1.6c0-0.8-0.5-1.6-1.9-1.6H-59.9z"/>
	<path d="M-39.5,353.7v2.2h-7.7v-12.6h2.4v10.4H-39.5z"/>
	<path d="M-30.3,353l-1.2,2.8H-34l5.4-12.6h1.7l5.4,12.6h-2.5l-1.2-2.8H-30.3z M-26.2,350.9l-1.6-3.7l-1.6,3.7H-26.2z"/>
	<path d="M-15.5,352.4c0.8,0.9,1.8,1.4,3,1.4c1.1,0,1.8-0.7,1.8-1.6c0-1-0.8-1.5-2.3-2c-0.8-0.3-1.4-0.6-1.7-0.8
		c-1.2-0.7-1.8-1.7-1.8-2.9c0-2.1,1.9-3.5,4.2-3.5c1.4,0,2.6,0.4,3.7,1.2L-10,346c-0.6-0.6-1.3-0.8-2.2-0.8c-1,0-2,0.5-2,1.4
		c0,0.7,0.9,1.2,2.1,1.7c1.1,0.4,2.4,0.9,3.2,2c0.4,0.6,0.6,1.2,0.6,2c0,2.2-1.9,3.8-4.3,3.8c-1.7,0-3.2-0.6-4.6-1.9L-15.5,352.4z"
		/>
	<path d="M-0.1,355.8v-10.4h-3.3v-2.2h9.1v2.2H2.3v10.4H-0.1z"/>
	<path d="M14.2,343.2v12.6h-2.4v-12.6H14.2z"/>
	<path d="M22.3,354.1c-1.3-1.2-1.9-2.8-1.9-4.6c0-3.7,2.8-6.5,6.6-6.5c1.8,0,3.4,0.6,4.6,1.8l-1.6,1.7c-0.9-0.9-1.9-1.3-3.1-1.3
		c-2.4,0-4.2,1.9-4.2,4.3c0,2.5,1.9,4.3,4.3,4.3c1.5,0,2.7-0.6,3.6-1.7l1.7,1.5c-1.2,1.5-3.1,2.4-5.3,2.4
		C25.1,356,23.5,355.4,22.3,354.1z"/>
</g>
<g id="logo_x5F__x5F_cross_1_">
	<g>
		<path d="M-83.6,365.7l-5.9,12.6h-2.2l5.9-12.6H-83.6z"/>
	</g>
</g>
<g id="logo_x5F__x5F_cross">
	<g>
		<path d="M-62.9,320.7l-5.9,12.6h-2.2l5.9-12.6H-62.9z"/>
	</g>
</g>
</svg>
